<svg
  width="128"
  height="128"
  viewBox="0 0 128 128"
  fill="#f53"
  xmlns="http://www.w3.org/2000/svg"
>
  <path
    d="
      M0 39.3846
      C0 17.6331 17.6331 0 39.3846 0
      H88.6152
      C110.367 0 128 17.6331 128 39.3846
      V88.6152
      C128 110.367 110.367 128 88.6152 128
      H39.3846
      C17.6331 128 0 110.367 0 88.6152
      V39.3846
      Z
      M90.5846 49.2092
      C88.116 44.8196 84.2959 40.7381 80.6291 37.2622
      C75.3894 32.293 69.9599 29.8667 64.131 29.8667
      C58.3028 29.8667 52.8732 32.293 47.6335 37.2622
      C43.967 40.7381 40.147 44.8196 37.678 49.2092
      C34.899 54.1494 32.9647 57.7677 31.7046 64.0002
      C31.0049 67.4645 30.9167 71.0005 30.8513 74.5246
      C30.8513 80.3696 31.4885 86.8693 33.1269 91.5908
      C34.4609 95.4341 35.8774 98.1334 37.678 98.1334
      C39.1849 98.1334 40.1001 96.5886 41.4156 94.3681
      C41.6695 93.9399 41.9382 93.4857 42.229 93.0132
      C45.1051 88.3374 49.9117 81.1121 53.6066 77.6535
      C57.3015 74.1948 60.055 72.5333 64.131 72.5333
      C68.2077 72.5333 70.9611 74.1948 74.656 77.6535
      C78.351 81.1121 83.1575 88.3374 86.0333 93.0132
      C86.3244 93.4857 86.593 93.9399 86.8468 94.3681
      C88.1624 96.5886 89.0778 98.1334 90.5846 98.1334
      C92.3853 98.1334 93.8014 95.4341 95.136 91.5908
      C96.7742 86.8693 97.4113 80.3696 97.4113 74.5246
      C97.3459 71.0005 97.258 67.4645 96.5577 64.0002
      C95.2977 57.7677 93.3634 54.1494 90.5846 49.2092
      Z
    "
  />
</svg>
