<svg
  viewBox="0 0 48 48"
  fill="none"
  xmlns="http://www.w3.org/2000/svg"
>
  <path
    d="M31.3333 2H16.6667C8.56663 2 2 8.56663 2 16.6667V31.3333C2 39.4334 8.56663 46 16.6667 46H31.3333C39.4334 46 46 39.4334 46 31.3333V16.6667C46 8.56663 39.4334 2 31.3333 2ZM16.9326 33.6642C15.9503 35.6457 14.5998 35.4334 13.7404 32.9566C12.6844 29.9136 12.7581 24.818 13.9611 22.3412C16.7852 16.4676 20.2472 13 24.0045 13C27.7613 13 31.2234 16.4676 34.0475 22.3412C35.2259 24.818 35.3242 29.9136 34.2682 32.9566C33.4091 35.4334 32.0583 35.5749 31.0764 33.5935C29.0872 29.5594 26.6316 27.1533 24.0045 27.1533C21.3769 27.1533 18.9214 29.5594 16.9326 33.6642Z"
    stroke="#fff"
    stroke-width="4"
  />
</svg>
